<svg width="48" height="48" version="1" xmlns="http://www.w3.org/2000/svg">
 <g transform="matrix(.75 0 0 .75 -125.84783 -2.7759121)">
  <g transform="translate(167.79661,3.3812413)">
   <path d="m5.4159921 8c-1.6350446 0-2.9513439 1.238889-2.9513439 2.777778v44.444444c0 1.53889 1.3162993 2.777778 2.9513439 2.777778h53.12419c1.635044 0 2.951343-1.238888 2.951343-2.777778v-44.444444c0-1.538889-1.316299-2.777778-2.951343-2.777778z" style="opacity:.2"/>
   <rect x="10.562499" y="11.685496" width="42.875" height="41.375" style="fill:#4aa84e;stroke:#4aa84e"/>
   <rect x="2.5423992" y="35.912834" width="58.874763" height="2.4837306" style="fill:#4aa84e;stroke-width:.04767496;stroke:#4aa84e"/>
   <path d="m4.6278166 57.093999c-0.537814-0.172154-0.9410299-0.432761-1.345487-0.869623-0.4274734-0.461721-0.6681526-0.93934-0.7671589-1.522391-0.0503942-0.296778-0.066718-2.854455-0.0537732-8.425433l0.018588-7.999293h7.5805815c4.169321 0 7.595067-0.01487 7.612771-0.03305 0.0177-0.01818 1.1803-3.497258 2.583544-7.731284 1.403246-4.234025 2.577867-7.72474 2.610269-7.757142 0.0324-0.0324 0.07401-0.03401 0.09246-0.0036 0.01845 0.03044 1.895334 6.3176 4.170851 13.97147 4.829096 16.243013 4.685592 15.768778 4.769497 15.761776 0.07856-0.0066-0.06483 0.369897 2.881004-7.564153 1.316275-3.545141 2.434506-6.490336 2.484958-6.544876 0.0809-0.08745 1.518712-0.09917 12.170955-0.09917h12.079221l0.01859 7.999293c0.01294 5.570978-0.0034 8.128657-0.05377 8.425434-0.09944 0.5856-0.340013 1.061023-0.774233 1.530032-0.421991 0.4558-0.779866 0.684527-1.347411 0.861167-0.389294 0.121163-1.134308 0.124456-27.383645 0.120996-25.593426-0.0033-27.002238-0.0095-27.347814-0.12015zm27.452083-11.352283c-0.04948-0.09419-8.615964-28.697896-8.952384-29.89223-0.03329-0.118171-0.08777-0.214856-0.121077-0.214856-0.0333 0-1.179103 3.383999-2.546215 7.519996-1.367113 4.135999-2.892873 8.739725-3.390577 10.230502l-0.904919 2.710505h-13.684742l-0.0167552-13.255029c-0.010871-8.599174 0.0064-13.382743 0.04917-13.618631 0.2170171-1.1969466 1.2339748-2.2160756 2.4394879-2.4446965 0.494587-0.093796 53.597721-0.093796 54.092307 0 1.205514 0.2286208 2.222471 1.2477499 2.439488 2.4446965 0.04277 0.2358858 0.06004 5.019455 0.04917 13.618631l-0.01675 13.255029-12.858369 0.03364c-7.072103 0.0185-12.862576 0.04081-12.867719 0.04958-0.04268 0.07278-0.456216 1.177103-1.887456 5.040294-0.909283 2.454328-1.676435 4.50436-1.704783 4.555625-0.04171 0.07542-0.0642 0.06911-0.117871-0.03306z" style="fill:#1a5d1f"/>
  </g>
  <path d="m173.43944 10.021191c-1.75296 0-3.1642 1.412451-3.1642 3.166932v1.055644c0-1.754481 1.41124-3.166932 3.1642-3.166932h52.73681c1.75298 0 3.1642 1.412451 3.1642 3.166932v-1.055644c0-1.754481-1.41122-3.166932-3.1642-3.166932z" style="fill:#ffffff;opacity:.1"/>
 </g>
</svg>
