<svg width="16" height="16" version="1" xmlns="http://www.w3.org/2000/svg">
 <g transform="matrix(1.0786874 0 0 1.0786874 -.62946588 -.52890973)">
  <rect x=".64459884" y="2.7009804" width="14.710803" height="10.411541" style="fill:#4aa84e;stroke-width:.0485237;stroke:#4aa84e"/>
  <path d="m1.1574439 14.190016c-0.1344535-0.043038-0.23525734-0.10819-0.33637166-0.217405-0.10686835-0.115431-0.16703815-0.234835-0.1917897-0.380598-0.01259858-0.074195-0.01667953-0.713614-0.01344333-2.106358l0.004647-1.9998235h1.8951456c1.04233 0 1.8987668-0.00372 1.9031928-0.00826 0.00443-0.00455 0.2950747-0.8743145 0.645886-1.932821 0.3508115-1.0585063 0.6444667-1.931185 0.6525672-1.9392855 0.0081-0.0081 0.018503-0.0085 0.023115-9e-4 0.00461 0.00761 0.4738335 1.5794 1.0427128 3.4928675 1.207274 4.0607535 1.171398 3.9421945 1.1923742 3.9404435 0.01964-0.0016-0.016207 0.09247 0.720251-1.891038 0.3290688-0.886286 0.6086265-1.6225838 0.6212395-1.6362188 0.020225-0.021862 0.379678-0.024793 3.0427387-0.024793h3.019805l0.0046 1.9998228c0.0032 1.392745-8.5e-4 2.032165-0.01344 2.106359-0.02486 0.1464-0.085 0.265256-0.193558 0.382508-0.105497 0.11395-0.194966 0.171132-0.336852 0.215292-0.09732 0.03029-0.283577 0.03111-6.8459117 0.03025-6.3983567-8.36e-4 -6.7505595-0.0024-6.8369534-0.03004zm6.8630209-2.83807c-0.01237-0.02355-2.1539912-7.1744743-2.238096-7.4730578-0.00832-0.029543-0.021943-0.053714-0.030269-0.053714-0.00833 0-0.2947758 0.8459998-0.6365538 1.879999-0.3417784 1.0339998-0.7232184 2.1849313-0.8476444 2.5576255l-0.2262298 0.6776263h-3.4211855l-0.00418877-3.3137573c-0.00271775-2.1497935 0.00159902-3.3456861 0.0122924-3.4046578 0.0542543-0.2992367 0.30849367-0.5540189 0.60987197-0.6111741 0.1236467-0.023449 13.39943-0.023449 13.523077 0 0.301378 0.057155 0.555618 0.3119374 0.609872 0.6111741 0.01069 0.058971 0.01501 1.2548641 0.01229 3.4046578l-0.0042 3.3137573-3.214592 0.00841c-1.768026 0.00462-3.2156445 0.010203-3.2169303 0.012395-0.01067 0.018195-0.114054 0.2942757-0.471864 1.260073-0.2273207 0.613582-0.4191087 1.12609-0.4261957 1.138907-0.010428 0.01886-0.01605 0.01728-0.029468-0.0083z" style="fill:#1a5d1f"/>
 </g>
</svg>
