<svg width="16" height="16" version="1.1" xmlns="http://www.w3.org/2000/svg">
 <path d="m7.9019107 2.0000002e-8c-1.7862196 2.50048-7.855369 9.5522214-5.2702189 13.628558 2.0003729 3.153839 8.7995722 3.169996 10.7767 0 2.572395-4.1239566-3.9852964-11.128078-5.5059145-13.628558z" style="fill:#3486e9"/>
 <path d="m6.8085938 5c-1.1596314 0.0010621-2.4497475 0.6175382-3.6679688 2.1679688-0.611563 1.2696584-1.0406882 2.5582367-1.1191406 3.7597652-0.0060002 0.119592-0.0085674 0.237769-0.0078125 0.355469-5.645e-4 0.133379 0.0082911 0.263807 0.0175781 0.394531 0.0123618 0.162034 0.0274534 0.323692 0.0546875 0.480469 0.0205207 0.117107 0.0521449 0.231429 0.0820313 0.345703 0.0390843 0.152395 0.073324 0.30565 0.1289062 0.451172 0.004567 0.011718 0.0089901 0.023476 0.0136719 0.035156 0.0871016 0.221645 0.193721 0.43598 0.3222656 0.638672 0.0152037 0.023971 0.0350277 0.044752 0.0507813 0.06836 0.10182 0.152492 0.2144256 0.298192 0.3378906 0.435546 0.0501187 0.055766 0.1067349 0.106889 0.1601562 0.160157 0.1042285 0.103876 0.2121867 0.204452 0.328125 0.298828 0.0581184 0.047328 0.1168856 0.093735 0.1777344 0.138672 0.1236595 0.091286 0.2526801 0.178348 0.3867188 0.259765 0.0653562 0.039692 0.1296536 0.079845 0.1972656 0.117188 0.1913301 0.105684 0.3884341 0.204138 0.5957031 0.291016 0.0046448 0.001946 0.0090199 0.003921 0.0136719 0.005859 5.505e-4 2.29e-4 0.0014025-2.29e-4 0.0019531 0 0.2230193 0.09281 0.4557997 0.173048 0.6933594 0.244141 0.0633342 0.018945 0.1291667 0.033381 0.1933593 0.050781 0.1690399 0.045828 0.3396115 0.087932 0.5136719 0.123047 0.0887083 0.017888 0.1778291 0.033725 0.2675781 0.048828 0.1128502 0.018999 0.2276209 0.032279 0.3417969 0.046875 0.3865459 0.049298 0.7790446 0.081311 1.171875 0.080078 0.0333371-9.8e-5 0.0662808-0.003444 0.0996094-0.003906 0.3760682-0.005311 0.7487734-0.038138 1.1171875-0.089844 0.079487-0.011141 0.1594927-0.019901 0.2382812-0.033203 0.1094652-0.01851 0.2183343-0.039817 0.3261719-0.0625 0.1369659-0.028799 0.2725089-0.062121 0.4062499-0.097656 0.097781-0.026001 0.195266-0.050476 0.291016-0.080079 0.147322-0.045512 0.28991-0.098299 0.43164-0.152343 0.080641-0.030775 0.163599-0.05826 0.242188-0.091797 0.20011-0.085351 0.393329-0.179925 0.578125-0.283203-1.36e-4 -0.001083-0.001737-8.14e-4 -0.001953-0.001954-0.772532-1.271417-6.9218026-0.775136-6.792969-4.939453 0.0556808-1.7997839 1.5253209-3.2020194 2.9980469-3.162109 1.1216109 0.030396 2.4011101 0.9440826 3.3105471 2.8867188 1.142288-0.4333341-1.3361245-4.8895868-4.5000002-4.8867188z" style="fill-rule:evenodd;opacity:.4"/>
</svg>
