<svg width="16" height="16" version="1.1" xmlns="http://www.w3.org/2000/svg">
 <g transform="matrix(1.0229822 0 0 1.0229822 -.20627824 -.00797837)">
  <rect x="5.4147325" y="4.8791866" width="5.7201667" height="6.2233295" style="fill:#ffffff;stroke-width:.27620527;stroke:#ffffff"/>
  <path d="m6.4905392 15.523501c-3.0497069-0.525104-5.4710095-2.944408-6.1274375-6.1223798-0.14123784-0.6837754-0.14291382-2.2685485-0.00317815-3.0051749 0.29855931-1.5738771 1.0737622-2.9997028 2.2389806-4.118143 0.7905357-0.758799 1.3665675-1.1823562 2.0499682-1.5073449 3.9347509-1.8711562 8.5980816-0.19228464 10.475706 3.7714166 0.466288 0.9843434 0.658668 1.8076461 0.701303 3.0012691 0.05155 1.4433502-0.118356 2.2867068-0.732918 3.6378419-0.659205 1.449284-2.107286 2.933612-3.579487 3.669087-1.468586 0.733669-3.2702193 0.975214-5.0229368 0.673428zm1.6866817-4.97297c0.277343-0.115881 0.525567-0.346874 0.6533291-0.5675003 0.0511474-0.0883241-0.0065074-0.7401757 0.0155724-1.7338192l0.2499876-1.5588423 0.3042675-0.0346408 0.5196142-0.0346411 0.0203066-0.5829619c0.0146168-0.4196152-0.0047949-0.5988868-0.069282-0.6397964-0.1562929-0.0991522-1.5984507-0.1306821-1.6847869-0.0266538-0.0483594 0.0582699-0.0368035 0.6564841-0.0487414 1.5318248l-0.0188262 1.3803521-0.3950757-0.0597054c-0.4332722-0.0257616-0.7029164 0.0266649-1.0366036 0.3424598-0.4426123 0.4188802-0.3723952 1.1401529 0.0321169 1.6008665 0.3742531 0.426251 0.926517 0.617284 1.4316379 0.40623z" style="fill:#facf16"/>
  <path d="m7.0253803 12.782534c-0.956888-0.231825-2.0052389-0.892198-2.6173777-1.648731-1.6805116-2.076917-1.4779217-4.9663768 0.4748151-6.7721005 1.5022061-1.3891118 3.5968682-1.6856662 5.4875073-0.7769014 0.567098 0.2725848 0.744673 0.40389 1.283228 0.9488651 1.03848 1.050858 1.451558 2.0540632 1.444325 3.5076998-0.0035 0.7012158-0.02953 0.8721093-0.217184 1.4253506-0.462782 1.3643694-1.282038 2.3182364-2.535066 2.9516034-0.8877407 0.448724-2.3220073 0.606056-3.3202477 0.364214zm1.0368116-2.251428c0.1072699-0.04053 0.2846113-0.157442 0.3940933-0.259807 0.3588213-0.3354947 0.3898381-0.5016078 0.3898381-2.087824 0-1.6630925-0.069347-1.5085051 0.6928189-1.5444278l0.3810503-0.0179588 0.0203066-0.5829619c0.0146168-0.4196152-0.0047949-0.5988868-0.0692819-0.6397964-0.1141385-0.0724091-1.5162534-0.0747837-1.6296305-0.002762-0.0617233 0.0392101-0.0902909 0.4436268-0.1039227 1.4711794l-0.0188013 1.4171038-0.3896876-0.0231571c-1.0902335-0.0647897-1.7120895 1.1069998-1.0111416 1.9053358 0.3557107 0.405132 0.8692417 0.544587 1.3443584 0.365076z" style="fill:#f38c14"/>
 </g>
</svg>
