<svg width="22" height="22" version="1.1" viewBox="0 0 44 44" xmlns="http://www.w3.org/2000/svg">
 <g transform="scale(.6875)">
  <rect x="22.512476" y="20.831282" width="20.709839" height="22.531538" style="fill:#ffffff;stroke:#ffffff"/>
  <path d="m3.8138108 31.573072c-0.011897 0.33676-0.05122 0.667471-0.05122 1.008265 0 15.640213 12.591218 28.231432 28.231431 28.231432s28.231432-12.591219 28.231432-28.231432c0-0.340471-0.03936-0.670779-0.0512-1.008265-0.532364 15.166328-12.881599 27.223166-28.181018 27.223166-15.299823 0-27.648654-12.056838-28.181018-27.223166z" style="opacity:.2"/>
  <path d="m26.407429 59.368976c-11.041451-1.901137-19.807767-10.660216-22.184361-22.16605-0.511351-2.475606-0.5174189-8.21327-0.0115065-10.880223 1.0809327-5.698215 3.8875517-10.860411 8.1062198-14.909719 2.862131-2.7472286 4.947652-4.2807157 7.421901-5.4573357 14.245749-6.7745132 31.129319-0.6961657 37.927247 13.654398 1.688193 3.563811 2.384704 6.544575 2.539065 10.866082 0.186656 5.225643-0.428509 8.279012-2.653528 13.170791-2.386648 5.247125-7.629418 10.621129-12.959516 13.283913-5.31701 2.656245-11.839815 3.53076-18.185521 2.438144zm6.106624-18.004618c1.004119-0.419547 1.902813-1.255855 2.365375-2.054631 0.185179-0.319777-0.02356-2.679803 0.05638-6.277285l0.905079-5.643782 1.101599-0.125417 1.881261-0.125418 0.07352-2.110611c0.05292-1.519215-0.01736-2.168267-0.250835-2.31638-0.565858-0.35898-5.787184-0.473134-6.099764-0.0965-0.175085 0.210966-0.133247 2.376798-0.176468 5.545965l-0.06816 4.997559-1.43037-0.216163c-1.56866-0.09327-2.544906 0.09654-3.753019 1.239874-1.602476 1.516554-1.348255 4.127919 0.116279 5.79593 1.354982 1.543239 3.354451 2.234873 5.183239 1.470755z" style="fill:#facf16"/>
  <path d="m28.343819 49.445316c-3.464409-0.839321-7.259959-3.2302-9.476205-5.969223-6.084285-7.519469-5.350809-17.980746 1.719066-24.518361 5.438731-5.029273 13.022446-6.102947 19.867496-2.812768 2.053178 0.986892 2.696087 1.462282 4.645924 3.435362 3.75981 3.804627 5.255357 7.436727 5.22917 12.699612-0.01264 2.538749-0.106909 3.157468-0.786312 5.160476-1.675501 4.939692-4.641615 8.393165-9.178197 10.686266-3.214061 1.624606-8.406817 2.194225-12.020942 1.318636zm3.753772-8.151285c0.38837-0.146736 1.030434-0.570019 1.426813-0.94063 1.299111-1.214657 1.411407-1.816069 1.411407-7.558958 0-6.021219-0.25107-5.461536 2.508348-5.591594l1.379591-0.06502 0.07352-2.110611c0.05292-1.519215-0.01736-2.168267-0.250835-2.31638-0.413238-0.262157-5.489589-0.270754-5.90007-0.01-0.223469 0.14196-0.326898 1.606149-0.376252 5.326399l-0.06807 5.130618-1.410862-0.08384c-3.947186-0.234571-6.198613 4.007888-3.660834 6.898259 1.287849 1.466779 3.147086 1.971677 4.867241 1.321756z" style="fill:#f38c14"/>
 </g>
</svg>
