<svg width="16" height="16" version="1" xmlns="http://www.w3.org/2000/svg">
 <g transform="matrix(.30239856 0 0 .30239856 -1.6088666 -1.806463)">
  <g transform="translate(70.355933)">
   <g transform="matrix(1.0286675 0 0 1.0286675 1.1046941 -.40466163)">
    <path d="m-60.858329 57.264996c-1.212959-0.240697-2.329175-1.079356-2.823759-2.121616-0.371519-0.782909-0.403232-2.959865-0.343027-23.547052l0.06632-22.684391 0.599749-0.8409046c0.329862-0.4624973 1.060474-1.0501432 1.623596-1.3058797 0.973536-0.4421268 2.113568-0.4652448 23.200194-0.470461 23.867568-0.0059 23.143415-0.043849 24.396963 1.2783536 0.30741 0.324247 0.655689 0.8370204 0.773962 1.1394964 0.118265 0.3024761 0.230317 8.0475829 0.249013 17.211348l0.160539 17.126264-7.214635 7.175809-7.315685 7.38299-16.428997-0.20254c-8.825859-0.108807-16.45144-0.04362-16.944289-0.141418zm25.528145-9.195624c0.102208-0.10513 0.221944-0.584555 0.266083-1.065389 0.07667-0.835167 0.127707-0.877676 1.141832-0.951052l1.061584-0.07681v-9.598694l1.854381-1.679506c2.908133-2.633887 4.140429-5.297233 4.140429-8.948654 0-8.883292-9.449531-14.482398-17.341275-10.275181-0.69719 0.371684-1.905399 1.317543-2.6849 2.101911-4.924557 4.95529-4.411607 13.105073 1.098868 17.458807l1.317542 1.04097 0.124897 4.902089 0.124888 4.902091 0.995898 0.08105c1.128535 0.09185 1.367786 0.342464 1.373226 1.438464 0.0016 0.423593 0.06517 0.831485 0.140092 0.90643 0.204957 0.20496 6.172106-0.01603 6.386455-0.236533zm-6.597501-3.987571c-0.372776-0.09671-0.436704-0.336813-0.374683-1.407282l0.07478-1.290674 3.602726-0.06957c3.984172-0.07694 4.005407-0.06901 4.011859 1.497038 0.0025 0.664327-0.133411 1.001349-0.479323 1.186473-0.469272 0.251151-5.932329 0.318298-6.835363 0.08401zm-0.258267-4.987642c-0.09159-0.09159-0.166521-1.043558-0.166521-2.115488v-1.948964l-1.31137-0.841237c-1.705857-1.0943-3.080735-2.641647-3.900332-4.3896-0.580478-1.237989-0.65822-1.714254-0.65822-4.032434 0-2.459558 0.0521-2.734389 0.80962-4.272554 0.975114-1.97994 2.762248-3.734284 4.756047-4.668777 1.278292-0.599134 1.716821-0.669357 4.175906-0.6687 2.512002 6.75e-4 2.871802 0.06161 4.195729 0.710652 1.919098 0.940815 3.694258 2.760742 4.714751 4.833652 0.766131 1.556239 0.830889 1.874075 0.828514 4.066389-0.0025 2.071301-0.09176 2.56935-0.693681 3.859451-0.938207 2.010845-2.176888 3.458021-3.801125 4.440914l-1.358368 0.822001-0.0074 1.790503c-0.01085 2.742573 0.231492 2.580715-3.86382 2.580715-1.954436 0-3.628449-0.07493-3.720038-0.166523z" style="fill:#f5db92"/>
    <rect x="-55.661015" y="9.0847454" width="29.627127" height="41.016945" ry="13.288136" style="fill:#ffffff;stroke:#ffffff"/>
    <path d="m-62.299023 57.507235c-0.533478-0.15127-1.565849-0.832208-1.821963-1.803811l-0.09164-0.45453v-23.163919l0.01102-22.639116c-0.116045-2.7413311 1.749105-3.1609713 2.602205-3.2175186 2.702458-0.00488 7.68643 0.108522 23.032179 0.066249 22.688281-0.0625 21.33475-0.054645 22.710864-0.053834 1.607789-0.1478676 2.83067 1.1006585 2.829258 2.5219444-0.01103 0.8769825-0.0212 0.1291657 0.0469 16.719215 0.05071 12.361722 0.03263 17.224423 0.02539 17.568239-0.376598 0.01009-1.693728 3.83e-4 -6.261855 3.83e-4 -8.411278 0-8.250468-0.196541-8.250468 8.333574 0 4.006077-0.01044 5.920572-0.018 6.224842-0.909477-0.01425-32.895182-7.11e-4 -34.19729-0.0058-0.320645-0.03366-0.420698-0.04676-0.616625-0.09592zm27.431915-9.491768c0.107319-0.858534 0.228953-1.032063 0.765531-1.092151 1.945108-0.217818 1.786254 0.259333 1.786254-5.365291v-5.044237l1.285154-0.959457c1.597881-1.192928 3.356647-3.549092 4.0843-5.471586 0.686318-1.813287 0.923349-5.037581 0.514841-7.003178-1.034431-4.977402-5.380204-8.969147-10.580162-9.718277-8.020628-1.155488-15.193742 6.062691-13.975343 14.063132 0.454365 2.983579 1.662245 5.218252 4.0012 7.402577l1.911086 1.784745v4.634128c0 2.706435 0.109891 4.839449 0.264151 5.127711 0.192975 0.36058 0.536791 0.493582 1.275892 0.493582 1.002924 0 1.011742 0.0085 1.011742 0.978183 0 0.538003 0.07963 1.057754 0.176826 1.155009 0.09725 0.09725 1.791004 0.145098 3.763889 0.106325l3.587055-0.07049zm-7.13615-4.327374c-0.186006-0.224128-0.253328-0.656485-0.16007-1.028058l0.160949-0.641261h6.910903l-0.07914 0.95692-0.07914 0.956919-3.216193 0.07113c-2.624251 0.05804-3.275256-4.7e-5 -3.537196-0.315658zm-0.0939-4.901579c-0.09358-0.09356-0.17012-1.042794-0.17012-2.1094v-1.939279l-1.413684-0.845554c-1.714782-1.025658-3.208188-2.850159-3.94798-4.823277-0.810869-2.162696-0.660899-5.488697 0.339329-7.5256 3.536152-7.201139 13.78005-7.196072 17.326886 0.0086 0.768374 1.560789 0.837126 1.900009 0.837126 4.130016 0 2.091833-0.09347 2.628914-0.672437 3.863667-0.83729 1.785703-2.24186 3.366467-3.984559 4.4844l-1.339697 0.859406v4.067171h-3.402371c-1.871311 0-3.478931-0.07656-3.572493-0.170119z" style="fill:#f0b516"/>
   </g>
  </g>
 </g>
</svg>
