<?xml version="1.0" encoding="UTF-8" standalone="no"?>
<svg
   xmlns:dc="http://purl.org/dc/elements/1.1/"
   xmlns:cc="http://creativecommons.org/ns#"
   xmlns:rdf="http://www.w3.org/1999/02/22-rdf-syntax-ns#"
   xmlns:svg="http://www.w3.org/2000/svg"
   xmlns="http://www.w3.org/2000/svg"
   xmlns:sodipodi="http://sodipodi.sourceforge.net/DTD/sodipodi-0.dtd"
   xmlns:inkscape="http://www.inkscape.org/namespaces/inkscape"
   width="64"
   height="64"
   version="1"
   id="svg18"
   sodipodi:docname="keep@64x64.svg"
   inkscape:version="0.92.4 5da689c313, 2019-01-14">
  <metadata
     id="metadata24">
    <rdf:RDF>
      <cc:Work
         rdf:about="">
        <dc:format>image/svg+xml</dc:format>
        <dc:type
           rdf:resource="http://purl.org/dc/dcmitype/StillImage" />
      </cc:Work>
    </rdf:RDF>
  </metadata>
  <defs
     id="defs22" />
  <sodipodi:namedview
     pagecolor="#ffffff"
     bordercolor="#666666"
     borderopacity="1"
     objecttolerance="10"
     gridtolerance="10"
     guidetolerance="10"
     inkscape:pageopacity="0"
     inkscape:pageshadow="2"
     inkscape:window-width="1876"
     inkscape:window-height="1027"
     id="namedview20"
     showgrid="true"
     inkscape:zoom="90.509664"
     inkscape:cx="29.259784"
     inkscape:cy="19.978253"
     inkscape:window-x="44"
     inkscape:window-y="25"
     inkscape:window-maximized="1"
     inkscape:current-layer="svg18">
    <inkscape:grid
       type="xygrid"
       id="grid51" />
  </sodipodi:namedview>
  <g
     id="g49">
    <path
       style="fill:#f0b516;fill-opacity:1"
       d="M 7 4 C 5.338 4 4 5.338 4 7 L 4 57 C 4 58.662 5.338 60 7 60 L 45 60 L 60 44 L 60 7 C 60 5.338 58.662 4 57 4 L 7 4 z "
       id="rect2" />
    <path
       id="path4-5"
       d="M 7,4 C 5.338,4 4,5.338 4,7 V 8 C 4,6.338 5.338,5 7,5 h 50 c 1.662,0 3,1.338 3,3 V 7 C 60,5.338 58.662,4 57,4 Z"
       style="opacity:0.1;fill:#ffffff"
       inkscape:connector-curvature="0" />
    <path
       style="opacity:0.2"
       d="M 60 44 L 45 60 L 7 60 C 5.338 60 4 58.662 4 57 L 4 58 C 4 59.662 5.338 61 7 61 L 45 61 L 60 45 L 60 44 z "
       id="path10" />
  </g>
  <g
     id="g6"
     style="opacity:0.2"
     transform="translate(60.208576,-30.331621)" />
  <path
     id="path59"
     d="M 32,13.996094 A 13.00063,12.985793 0 0 0 19,26.983212 13.00063,12.985793 0 0 0 24.990522,37.903486 V 47.987647 H 39.009478 V 37.919114 A 13.00063,12.985793 0 0 0 45,26.983212 13.00063,12.985793 0 0 0 32,13.996094 Z M 27.994584,47.99546 v 3.000634 h 8.010832 V 47.99546 Z"
     style="opacity:1;vector-effect:none;fill:#000000;fill-opacity:0.2;stroke:none;stroke-width:1.29932106"
     inkscape:connector-curvature="0" />
  <path
     style="opacity:1;vector-effect:none;fill:#ffffff;fill-opacity:1;stroke:none;stroke-width:1.29830515"
     d="M 32,13.003906 C 24.829387,13.004253 19.016846,18.817669 19.017578,25.988282 19.023015,30.408735 21.277224,34.522686 25,36.90625 V 46.988282 H 39 V 36.921875 c 3.727444,-2.386558 5.982307,-6.50759 5.982422,-10.933593 C 44.983154,18.817669 39.170613,13.004253 32,13.003906 Z M 28,46 v 3.996094 h 8 V 46 Z"
     id="circle74"
     inkscape:connector-curvature="0"
     sodipodi:nodetypes="ccccccccccccc" />
  <path
     style="opacity:1;vector-effect:none;fill:#f5db92;fill-opacity:1;stroke:none"
     d="m 48,44 c -1.65261,0 -2.982422,1.338 -2.982422,3 C 45.011755,51.000025 45,60 45,60 L 60,44 c 0,0 -2.125563,0 -2.964844,0 z"
     id="rect164"
     inkscape:connector-curvature="0"
     sodipodi:nodetypes="scccss" />
  <path
     id="path61"
     d="m 32.007812,15.988282 a 9.9880152,10 0 0 0 -9.988281,10 A 9.9880152,10 0 0 0 28,35.140625 v 2.855469 h 8 v -2.853516 a 9.9880152,10 0 0 0 5.996094,-9.154296 9.9880152,10 0 0 0 -9.988282,-10 z M 28,40.996094 v 3 h 8 v -3 z"
     style="opacity:1;vector-effect:none;fill:#f0b516;fill-opacity:1;stroke:none;stroke-width:0.99940044"
     inkscape:connector-curvature="0" />
</svg>
