<?xml version="1.0" encoding="UTF-8" standalone="no"?>
<svg
   xmlns:dc="http://purl.org/dc/elements/1.1/"
   xmlns:cc="http://creativecommons.org/ns#"
   xmlns:rdf="http://www.w3.org/1999/02/22-rdf-syntax-ns#"
   xmlns:svg="http://www.w3.org/2000/svg"
   xmlns="http://www.w3.org/2000/svg"
   xmlns:sodipodi="http://sodipodi.sourceforge.net/DTD/sodipodi-0.dtd"
   xmlns:inkscape="http://www.inkscape.org/namespaces/inkscape"
   width="22"
   height="22"
   version="1"
   id="svg20"
   sodipodi:docname="keep@22x22.svg"
   inkscape:version="0.92.4 5da689c313, 2019-01-14">
  <metadata
     id="metadata26">
    <rdf:RDF>
      <cc:Work
         rdf:about="">
        <dc:format>image/svg+xml</dc:format>
        <dc:type
           rdf:resource="http://purl.org/dc/dcmitype/StillImage" />
      </cc:Work>
    </rdf:RDF>
  </metadata>
  <defs
     id="defs24" />
  <sodipodi:namedview
     pagecolor="#ffffff"
     bordercolor="#666666"
     borderopacity="1"
     objecttolerance="10"
     gridtolerance="10"
     guidetolerance="10"
     inkscape:pageopacity="0"
     inkscape:pageshadow="2"
     inkscape:window-width="1876"
     inkscape:window-height="1027"
     id="namedview22"
     showgrid="true"
     inkscape:zoom="171.63636"
     inkscape:cx="9.9426982"
     inkscape:cy="5.6479465"
     inkscape:window-x="44"
     inkscape:window-y="25"
     inkscape:window-maximized="1"
     inkscape:current-layer="g53">
    <inkscape:grid
       type="xygrid"
       id="grid17" />
  </sodipodi:namedview>
  <g
     id="g53"
     transform="matrix(0.34375,0,0,0.34375,0,-0.171875)">
    <g
       id="g49">
      <path
         id="rect2"
         d="M 7,4 C 5.338,4 4,5.338 4,7 v 50 c 0,1.662 1.338,3 3,3 H 45 L 60,44 V 7 C 60,5.338 58.662,4 57,4 Z"
         style="fill:#f0b516;fill-opacity:1"
         inkscape:connector-curvature="0" />
      <path
         inkscape:connector-curvature="0"
         style="opacity:0.1;fill:#ffffff"
         d="M 7,4 C 5.338,4 4,5.338 4,7 V 8 C 4,6.338 5.338,5 7,5 h 50 c 1.662,0 3,1.338 3,3 V 7 C 60,5.338 58.662,4 57,4 Z"
         id="path4-5" />
      <path
         id="path10"
         d="M 60,44 45,60 H 7 C 5.338,60 4,58.662 4,57 v 1 c 0,1.662 1.338,3 3,3 H 45 L 60,45 Z"
         style="opacity:0.2"
         inkscape:connector-curvature="0" />
    </g>
    <g
       transform="translate(60.208576,-30.331621)"
       style="opacity:0.2"
       id="g6" />
    <path
       inkscape:connector-curvature="0"
       style="opacity:1;vector-effect:none;fill:#000000;fill-opacity:0.2;stroke:none;stroke-width:1.29932106"
       d="m 31.990522,14.496094 a 13.00063,12.985793 0 0 0 -13,12.987118 13.00063,12.985793 0 0 0 5.990522,10.920274 V 48.487647 H 39 V 38.419114 a 13.00063,12.985793 0 0 0 5.990522,-10.935902 13.00063,12.985793 0 0 0 -13,-12.987118 z M 27.985106,48.49546 v 3.000634 h 8.010832 V 48.49546 Z"
       id="path59" />
    <path
       id="circle74"
       d="M 32,13.503906 C 24.829387,13.504253 19.016846,19.317669 19.017578,26.488282 19.023015,30.908735 21.277224,35.022686 25,37.40625 V 47.488282 H 39 V 37.421875 c 3.727444,-2.386558 5.982307,-6.50759 5.982422,-10.933593 C 44.983154,19.317669 39.170613,13.504253 32,13.503906 Z m -4,33.541549 v 3.450639 h 8 v -3.450639 z"
       style="opacity:1;vector-effect:none;fill:#ffffff;fill-opacity:1;stroke:none;stroke-width:1.29830515"
       inkscape:connector-curvature="0"
       sodipodi:nodetypes="ccccccccccccc" />
    <path
       sodipodi:nodetypes="scccss"
       inkscape:connector-curvature="0"
       id="rect164"
       d="m 48,44 c -1.65261,0 -2.982422,1.338 -2.982422,3 C 45.011755,51.000025 45,60 45,60 L 60,44 c 0,0 -2.125563,0 -2.964844,0 z"
       style="opacity:1;vector-effect:none;fill:#f5db92;fill-opacity:1;stroke:none" />
    <path
       style="opacity:1;vector-effect:none;fill:#f0b516;fill-opacity:1;stroke:none;stroke-width:0.99940044"
       d="m 32.007812,16.488282 a 9.9880152,10 0 0 0 -9.988281,10 A 9.9880152,10 0 0 0 28,35.640625 v 2.855469 h 8 v -2.853516 a 9.9880152,10 0 0 0 5.996094,-9.154296 9.9880152,10 0 0 0 -9.988282,-10 z M 28,41.496094 v 3 h 8 v -3 z"
       id="path61"
       inkscape:connector-curvature="0" />
  </g>
</svg>
