<?xml version="1.0" encoding="UTF-8" standalone="no"?>
<svg
   xmlns:dc="http://purl.org/dc/elements/1.1/"
   xmlns:cc="http://creativecommons.org/ns#"
   xmlns:rdf="http://www.w3.org/1999/02/22-rdf-syntax-ns#"
   xmlns:svg="http://www.w3.org/2000/svg"
   xmlns="http://www.w3.org/2000/svg"
   xmlns:sodipodi="http://sodipodi.sourceforge.net/DTD/sodipodi-0.dtd"
   xmlns:inkscape="http://www.inkscape.org/namespaces/inkscape"
   width="16"
   height="16"
   version="1"
   id="svg14"
   sodipodi:docname="keep@16x16.svg"
   inkscape:version="0.92.4 5da689c313, 2019-01-14">
  <metadata
     id="metadata20">
    <rdf:RDF>
      <cc:Work
         rdf:about="">
        <dc:format>image/svg+xml</dc:format>
        <dc:type
           rdf:resource="http://purl.org/dc/dcmitype/StillImage" />
      </cc:Work>
    </rdf:RDF>
  </metadata>
  <defs
     id="defs18" />
  <sodipodi:namedview
     pagecolor="#ffffff"
     bordercolor="#666666"
     borderopacity="1"
     objecttolerance="10"
     gridtolerance="10"
     guidetolerance="10"
     inkscape:pageopacity="0"
     inkscape:pageshadow="2"
     inkscape:window-width="1876"
     inkscape:window-height="1027"
     id="namedview16"
     showgrid="true"
     inkscape:zoom="256"
     inkscape:cx="7.3537771"
     inkscape:cy="3.413895"
     inkscape:window-x="44"
     inkscape:window-y="25"
     inkscape:window-maximized="1"
     inkscape:current-layer="g47">
    <inkscape:grid
       type="xygrid"
       id="grid49" />
  </sodipodi:namedview>
  <g
     id="g47"
     transform="matrix(0.25,0,0,0.25,0,-0.125)">
    <g
       id="g49"
       transform="matrix(1.1428571,0,0,1.1428571,-4.5714286,-4.0714286)">
      <path
         id="rect2"
         d="M 7,4 C 5.338,4 4,5.338 4,7 v 50 c 0,1.662 1.338,3 3,3 H 45 L 60,44 V 7 C 60,5.338 58.662,4 57,4 Z"
         style="fill:#f0b516;fill-opacity:1"
         inkscape:connector-curvature="0" />
    </g>
    <g
       transform="matrix(1.1428571,0,0,1.1428571,64.238373,-38.736138)"
       style="opacity:0.2"
       id="g6" />
    <path
       id="circle74"
       d="m 32,11.361607 c -8.194986,3.97e-4 -14.83789,6.6443 -14.837054,14.839286 0.0062,5.051946 2.582453,9.753605 6.837054,12.477678 V 50.200893 H 40 V 38.696428 C 44.259937,35.968933 46.836923,31.259182 46.837054,26.200893 46.83789,18.005907 40.194986,11.362004 32,11.361607 Z M 27.428571,48.5 v 5.138393 h 9.142858 V 48.5 Z"
       style="opacity:1;vector-effect:none;fill:#ffffff;fill-opacity:1;stroke:none;stroke-width:1.48377728"
       inkscape:connector-curvature="0"
       sodipodi:nodetypes="ccccccccccccc" />
    <path
       sodipodi:nodetypes="scccss"
       inkscape:connector-curvature="0"
       id="rect164"
       d="m 50.285714,46.214286 c -1.888697,0 -3.408482,1.529143 -3.408482,3.428571 C 46.870532,54.214314 46.857142,64.5 46.857142,64.5 L 64,46.214286 c 0,0 -2.429215,0 -3.388393,0 z"
       style="opacity:1;vector-effect:none;fill:#f5db92;fill-opacity:1;stroke:none;stroke-width:1.14285707" />
    <path
       style="opacity:1;vector-effect:none;fill:#f0b516;fill-opacity:1;stroke:none;stroke-width:1.14217186"
       d="M 32.008928,14.772322 A 11.414875,11.428571 0 0 0 20.59375,26.200893 11.414875,11.428571 0 0 0 27.428571,36.660714 v 3.263393 h 9.142858 V 36.662946 A 11.414875,11.428571 0 0 0 43.424107,26.200893 11.414875,11.428571 0 0 0 32.008928,14.772322 Z m -4.580357,28.580357 v 3.428571 h 9.142858 v -3.428571 z"
       id="path61"
       inkscape:connector-curvature="0" />
  </g>
</svg>
