<?xml version="1.0" encoding="UTF-8" standalone="no"?>
<svg
   xmlns:dc="http://purl.org/dc/elements/1.1/"
   xmlns:cc="http://creativecommons.org/ns#"
   xmlns:rdf="http://www.w3.org/1999/02/22-rdf-syntax-ns#"
   xmlns:svg="http://www.w3.org/2000/svg"
   xmlns="http://www.w3.org/2000/svg"
   xmlns:sodipodi="http://sodipodi.sourceforge.net/DTD/sodipodi-0.dtd"
   xmlns:inkscape="http://www.inkscape.org/namespaces/inkscape"
   width="32"
   height="32"
   version="1"
   id="svg12"
   sodipodi:docname="spotify-client@32x32.svg"
   inkscape:version="0.92.3 (2405546, 2018-03-11)">
  <metadata
     id="metadata18">
    <rdf:RDF>
      <cc:Work
         rdf:about="">
        <dc:format>image/svg+xml</dc:format>
        <dc:type
           rdf:resource="http://purl.org/dc/dcmitype/StillImage" />
      </cc:Work>
    </rdf:RDF>
  </metadata>
  <defs
     id="defs16" />
  <sodipodi:namedview
     pagecolor="#ffffff"
     bordercolor="#666666"
     borderopacity="1"
     objecttolerance="10"
     gridtolerance="10"
     guidetolerance="10"
     inkscape:pageopacity="0"
     inkscape:pageshadow="2"
     inkscape:window-width="840"
     inkscape:window-height="480"
     id="namedview14"
     showgrid="false"
     inkscape:zoom="7.375"
     inkscape:cx="16"
     inkscape:cy="16"
     inkscape:window-x="62"
     inkscape:window-y="34"
     inkscape:window-maximized="0"
     inkscape:current-layer="svg12" />
  <g
     id="g32"
     transform="matrix(0.5,0,0,0.5,-5.005e-4,0.25)">
    <path
       id="path2"
       d="M 4.0508,31 C 4.039,31.334 4,31.662 4,32 4,47.512 16.488,60 32,60 47.512,60 60,47.512 60,32 c 0,-0.33768 -0.03904,-0.66528 -0.05078,-1 -0.528,15.042 -12.776,27 -27.95,27 -15.1744,0 -27.422,-11.958 -27.95,-27 z"
       style="opacity:0.2"
       inkscape:connector-curvature="0" />
    <rect
       id="rect4"
       transform="matrix(0,-1,-1,0,0,0)"
       ry="28"
       rx="28"
       y="-60"
       x="-59"
       height="56"
       width="56"
       style="fill:#1ed760" />
    <path
       id="path6"
       d="M 32,3 C 16.488,3 4,15.488 4,31 4,31.113448 4.011281,31.224113 4.017578,31.335938 4.3691213,16.134181 16.710728,4 32,4 h 0.002 c 15.289273,0 27.630879,12.134181 27.982422,27.335938 0.0063,-0.111825 0.01758,-0.22249 0.01758,-0.335938 0,-15.512 -12.488,-28 -28,-28 z"
       style="opacity:0.2;fill:#ffffff"
       inkscape:connector-curvature="0" />
    <path
       style="fill:#182119;stroke-width:0.24225979"
       d="m 39.571681,43.565103 c -3.705743,-1.827668 -6.394188,-2.43546 -11.386214,-2.574144 -3.150878,-0.08754 -4.716014,-0.01822 -6.662143,0.295034 -4.370125,0.703429 -4.906596,0.719914 -5.407705,0.166195 -0.617263,-0.682067 -0.456153,-1.936477 0.320249,-2.493456 1.042475,-0.747856 6.364885,-1.498163 10.659431,-1.502679 4.261697,-0.0046 7.143981,0.416313 10.458928,1.526924 2.283774,0.765132 5.050484,2.076316 5.994554,2.840918 1.16713,0.945256 0.4443,3.005898 -1.03626,2.954145 -0.28503,-0.01 -1.60841,-0.555783 -2.94084,-1.212937 z m 3.39492,-7.013945 c -1.9152,-1.063768 -5.868714,-2.43465 -8.667624,-3.005503 -4.729826,-0.964679 -10.805569,-0.921568 -15.138113,0.107408 -1.12006,0.266014 -2.359871,0.483662 -2.755136,0.483662 -1.665637,0 -2.555155,-2.281926 -1.35669,-3.480389 0.638205,-0.638204 3.531971,-1.428183 6.826322,-1.863543 3.176563,-0.41979 9.773026,-0.175362 13.061851,0.484003 4.64368,0.930992 10.70008,3.330199 12.05959,4.777338 0.73929,0.78693 0.72598,2.057275 -0.03,2.861956 -0.82998,0.883487 -1.93386,0.782782 -4.00021,-0.364932 z m 2.7827,-8.564506 c -5.43145,-2.574223 -10.627144,-3.621278 -18.048355,-3.63717 -4.958841,-0.01063 -7.04334,0.205082 -10.680367,1.105197 -1.808776,0.447645 -2.027754,0.456109 -2.855271,0.110349 -1.710081,-0.714517 -2.03796,-2.930563 -0.611222,-4.131084 0.848767,-0.714191 1.602973,-0.947137 5.30438,-1.638319 3.824614,-0.714191 12.824776,-0.774824 16.837051,-0.113428 6.722694,1.108185 13.724064,3.623154 15.156684,5.444439 0.72958,0.927511 0.63277,2.463862 -0.2059,3.267354 -1.16453,1.115697 -1.79396,1.06334 -4.897,-0.407338 z"
       id="path33-3"
       inkscape:connector-curvature="0" />
  </g>
</svg>
