<?xml version="1.0" encoding="UTF-8" standalone="no"?>
<svg
   xmlns:dc="http://purl.org/dc/elements/1.1/"
   xmlns:cc="http://creativecommons.org/ns#"
   xmlns:rdf="http://www.w3.org/1999/02/22-rdf-syntax-ns#"
   xmlns:svg="http://www.w3.org/2000/svg"
   xmlns="http://www.w3.org/2000/svg"
   xmlns:sodipodi="http://sodipodi.sourceforge.net/DTD/sodipodi-0.dtd"
   xmlns:inkscape="http://www.inkscape.org/namespaces/inkscape"
   width="16"
   height="16"
   version="1"
   id="svg12"
   sodipodi:docname="spotify-client@16x16.svg"
   inkscape:version="0.92.3 (2405546, 2018-03-11)">
  <metadata
     id="metadata18">
    <rdf:RDF>
      <cc:Work
         rdf:about="">
        <dc:format>image/svg+xml</dc:format>
        <dc:type
           rdf:resource="http://purl.org/dc/dcmitype/StillImage" />
      </cc:Work>
    </rdf:RDF>
  </metadata>
  <defs
     id="defs16" />
  <sodipodi:namedview
     pagecolor="#ffffff"
     bordercolor="#666666"
     borderopacity="1"
     objecttolerance="10"
     gridtolerance="10"
     guidetolerance="10"
     inkscape:pageopacity="0"
     inkscape:pageshadow="2"
     inkscape:window-width="1858"
     inkscape:window-height="1046"
     id="namedview14"
     showgrid="false"
     inkscape:zoom="41.7193"
     inkscape:cx="6.4622888"
     inkscape:cy="8.6862915"
     inkscape:window-x="62"
     inkscape:window-y="34"
     inkscape:window-maximized="1"
     inkscape:current-layer="svg12" />
  <g
     id="g40"
     transform="matrix(1.1421062,0,0,1.1421062,-1.1368431,-0.99408632)">
    <rect
       style="fill:#1ed760;stroke-width:0.25"
       width="14"
       height="14"
       x="-14.875"
       y="-14.999994"
       rx="7"
       ry="7"
       transform="matrix(0,-1,-1,0,0,0)"
       id="rect4" />
    <path
       inkscape:connector-curvature="0"
       id="path33-3"
       d="M 9.8929142,11.016276 C 8.9664784,10.559359 8.2943672,10.407411 7.0463607,10.37274 6.2586412,10.350855 5.8673572,10.368185 5.3808249,10.446498 4.2882937,10.622356 4.1541759,10.626477 4.0288987,10.488047 3.8745829,10.31753 3.9148604,10.003928 4.1089609,9.864683 4.3695797,9.677719 5.7001822,9.4901423 6.7738187,9.4890133 c 1.0654242,-0.00115 1.7859952,0.1040782 2.614732,0.381731 0.5709435,0.1912827 1.2626213,0.5190787 1.4986383,0.7102297 0.291783,0.236314 0.111075,0.751474 -0.259065,0.738536 -0.07126,-0.0025 -0.402102,-0.138946 -0.7352098,-0.303234 z M 10.741644,9.2627895 C 10.262844,8.9968475 9.2744657,8.654127 8.5747382,8.5114138 7.3922817,8.270244 5.8733459,8.2810218 4.7902099,8.5382658 4.5101949,8.6047693 4.2002422,8.6591813 4.1014259,8.6591813 3.6850167,8.6591813 3.4626372,8.0886998 3.7622534,7.789084 3.9218047,7.629533 4.6452462,7.4320383 5.4688339,7.3231983 6.2629747,7.2182508 7.9120904,7.2793578 8.7342967,7.444199 c 1.16092,0.232748 2.6750203,0.8325498 3.0148973,1.1943345 0.184823,0.1967325 0.181495,0.5143188 -0.0075,0.715489 -0.207495,0.2208718 -0.483465,0.1956955 -1.000052,-0.091233 z M 11.437319,7.121663 C 10.079457,6.4781072 8.7805332,6.2163435 6.9252304,6.2123705 5.6855202,6.209713 5.1643954,6.263641 4.2551387,6.4886697 3.8029447,6.600581 3.7482002,6.602697 3.5413209,6.516257 3.1138007,6.3376277 3.0318309,5.7836162 3.3885154,5.483486 3.6007072,5.3049382 3.7892587,5.2467017 4.7146104,5.0739062 5.6707639,4.8953585 7.9208044,4.8802002 8.9238732,5.0455492 10.604547,5.3225955 12.354889,5.9513377 12.713044,6.406659 c 0.182395,0.2318777 0.158193,0.6159655 -0.05147,0.8168385 -0.291132,0.2789242 -0.44849,0.265835 -1.22425,-0.1018345 z"
       style="fill:#182119;stroke-width:0.06056495" />
  </g>
</svg>
