<svg width="32" height="32" version="1.1" xmlns="http://www.w3.org/2000/svg">
 <g transform="matrix(.5 0 0 .5 5e-7 -.25000001)">
  <path d="m33.054666 12.053826c-15.463973 0-22.343146 6.591536-22.343146 22.055509s6.495657 20.617326 21.95963 20.617326 21.384357-6.303899 21.384357-21.767872-5.536868-20.904963-21.000841-20.904963zm-1.054668 4.247267c2.273914 7.7e-5 4.524705 0.456346 6.619141 1.341797 0.521785 0.221101 1.032188 0.468154 1.529297 0.740234 3.517206 1.920963 6.242682 5.022749 7.695312 8.757813 0.205773 0.527824 0.385033 1.065605 0.537109 1.611328 0.303213 1.093215 0.496233 2.214037 0.576172 3.345703 0.02852 0.400409 0.04286 0.801702 0.04297 1.203125-7.7e-5 2.273914-0.456346 4.524705-1.341797 6.619141-0.221101 0.521785-0.468154 1.032188-0.740234 1.529297-2.979988 5.456393-8.700851 8.850861-14.917969 8.851562-7.637239 3.34e-4 -14.337301-5.092416-16.380859-12.451172v-2e-3c-0.410925-1.480662-0.619202-3.010202-0.619141-4.546828 5.88e-4 -2.847656 0.716505-5.649542 2.082031-8.148438v-2e-3c2.202277-4.031882 5.942635-7.000778 10.369141-8.230468h2e-3c0.546203-0.151262 1.099628-0.275115 1.658203-0.371094 0.954056-0.164772 1.920444-0.24774 2.888624-0.248z" style="opacity:.2"/>
  <path d="M 32,5 A 28,28 0 0 0 4,33 28,28 0 0 0 32,61 28,28 0 0 0 60,33 28,28 0 0 0 32,5 Z m 0,10 a 17,17 0 0 1 6.619141,1.341797 17,17 0 0 1 1.529297,0.740234 17,17 0 0 1 7.695312,8.757813 17,17 0 0 1 0.537109,1.611328 17,17 0 0 1 0.576172,3.345703 A 17,17 0 0 1 49,32 17,17 0 0 1 47.658203,38.619141 17,17 0 0 1 46.917969,40.148438 17,17 0 0 1 32,49 17,17 0 0 1 15.619141,36.548828 a 17,17 0 0 1 0,-0.002 A 17,17 0 0 1 15,32 a 17,17 0 0 1 2.082031,-8.148438 17,17 0 0 1 0,-0.002 17,17 0 0 1 10.369141,-8.230468 17,17 0 0 1 0.002,0 A 17,17 0 0 1 29.111375,15.248 17,17 0 0 1 32,15 Z" style="opacity:.2"/>
  <g transform="translate(69.198461 -.19551197)">
   <path d="m-9.1984626 33.195512a28 28 0 0 1-28 28 28 28 0 0 1-28-28 28 28 0 0 1 28-28 28 28 0 0 1 28 28z" style="fill:none;opacity:.2"/>
   <path d="m-37.198463 4.195512v11a17 17 0 0 1 17 17h11a28 28 0 0 0-28-28z" style="fill:#196260"/>
   <path d="m-65.198463 32.195512a28 28 0 0 0 28 28v-11a17 17 0 0 1-17-17z" style="fill:#97c33d"/>
   <path d="m-20.198463 32.195512a17 17 0 0 1-17 17v11a28 28 0 0 0 28-28z" style="fill:#3f96b9"/>
   <path d="m-65.198463 32.195512 5.5 4 5.5-4z" style="fill:#5d7dbd"/>
   <path d="m-9.1984626 32.195512-5.4999984-4-5.500002 4z" style="fill:#3f96b9"/>
   <path d="m-37.198463 60.195512 4-5.499998-4-5.500002z" style="fill:#97c33d"/>
   <path d="m-37.198463 4.195512-4 5.0000002 4 4.9999998z" style="fill:#196260"/>
   <path d="m-37.198463 4.195512a28 28 0 0 0-28 28h11a17 17 0 0 1 17-17z" style="fill:#5d7dbd"/>
   <path d="m-37.198463 4.195512-4 5.499998 4 5.500002z" style="fill:#196260"/>
   <path d="m-37.198463 4.195512a28 28 0 0 0-28 28 28 28 0 0 0 0.01758 0.492188 28 28 0 0 1 27.98242-27.492188 28 28 0 0 1 27.974609 27.492188 28 28 0 0 0 0.025391-0.492188 28 28 0 0 0-28-28z" style="fill:#ffffff;opacity:.1"/>
  </g>
 </g>
</svg>
