<svg width="16" height="16" version="1.1" xmlns="http://www.w3.org/2000/svg">
 <g transform="matrix(.25 0 0 .25 2.5e-7 -.125)">
  <g transform="translate(69.198461 -.19551197)">
   <g transform="matrix(1.0209435 0 0 1.0209435 .48193182 -.36514361)">
    <path d="m-5.5735678 33.54034a31.202691 31.202691 0 0 1-31.202692 31.202691 31.202691 31.202691 0 0 1-31.202691-31.202691 31.202691 31.202691 0 0 1 31.202691-31.202692 31.202691 31.202691 0 0 1 31.202692 31.202692z" style="fill:none;opacity:.2"/>
    <path d="m-36.77626 1.2232666v12.258199a18.944491 18.944491 0 0 1 18.944491 18.944492h12.258201a31.202691 31.202691 0 0 0-31.202692-31.202691z" style="fill:#196260"/>
    <path d="m-67.978951 32.425958a31.202691 31.202691 0 0 0 31.202691 31.202691v-12.2582a18.944491 18.944491 0 0 1-18.944491-18.944491z" style="fill:#97c33d"/>
    <path d="m-17.831769 32.425958a18.944491 18.944491 0 0 1-18.944491 18.944491v12.2582a31.202691 31.202691 0 0 0 31.202692-31.202691z" style="fill:#3f96b9"/>
    <path d="m-67.978951 32.425958 6.1291 4.457527 6.1291-4.457527z" style="fill:#5d7dbd"/>
    <path d="m-5.5735678 32.425958-6.1290982-4.457528-6.129103 4.457528z" style="fill:#3f96b9"/>
    <path d="m-36.77626 63.628649 4.457528-6.129097-4.457528-6.129103z" style="fill:#97c33d"/>
    <path d="m-36.77626 1.2232666-4.457527 5.5719093 4.457527 5.5719091z" style="fill:#196260"/>
    <path d="m-36.77626 1.2232666a31.202691 31.202691 0 0 0-31.202691 31.202691h12.2582a18.944491 18.944491 0 0 1 18.944491-18.944492z" style="fill:#5d7dbd"/>
    <path d="m-36.77626 1.2232666-4.457527 6.1290976 4.457527 6.1291018z" style="fill:#196260"/>
   </g>
  </g>
 </g>
</svg>
