<?xml version="1.0" encoding="UTF-8" standalone="no"?>
<svg
   xmlns:dc="http://purl.org/dc/elements/1.1/"
   xmlns:cc="http://creativecommons.org/ns#"
   xmlns:rdf="http://www.w3.org/1999/02/22-rdf-syntax-ns#"
   xmlns:svg="http://www.w3.org/2000/svg"
   xmlns="http://www.w3.org/2000/svg"
   xmlns:sodipodi="http://sodipodi.sourceforge.net/DTD/sodipodi-0.dtd"
   xmlns:inkscape="http://www.inkscape.org/namespaces/inkscape"
   width="16"
   height="16"
   version="1"
   id="svg6"
   sodipodi:docname="teamviewer@16x16.svg"
   inkscape:version="0.92.3 (2405546, 2018-03-11)">
  <metadata
     id="metadata12">
    <rdf:RDF>
      <cc:Work
         rdf:about="">
        <dc:format>image/svg+xml</dc:format>
        <dc:type
           rdf:resource="http://purl.org/dc/dcmitype/StillImage" />
      </cc:Work>
    </rdf:RDF>
  </metadata>
  <defs
     id="defs10" />
  <sodipodi:namedview
     pagecolor="#ffffff"
     bordercolor="#666666"
     borderopacity="1"
     objecttolerance="10"
     gridtolerance="10"
     guidetolerance="10"
     inkscape:pageopacity="0"
     inkscape:pageshadow="2"
     inkscape:window-width="1858"
     inkscape:window-height="1046"
     id="namedview8"
     showgrid="false"
     inkscape:zoom="41.7193"
     inkscape:cx="6.9351139"
     inkscape:cy="8.5070867"
     inkscape:window-x="62"
     inkscape:window-y="34"
     inkscape:window-maximized="1"
     inkscape:current-layer="g37" />
  <g
     id="g37"
     transform="matrix(0.28026253,0,0,0.28026253,-0.87482378,-1.090948)">
    <rect
       id="rect16"
       transform="matrix(0,-1,-1,0,0,0)"
       ry="3.0564182"
       rx="3.0564182"
       y="-60.19268"
       x="-60.963829"
       height="57.053143"
       width="57.053143"
       style="fill:#4e91d9;stroke-width:1.01880622" />
    <path
       id="path22"
       d="m 31.666109,10.023523 c -12.378763,0 -22.413735,10.034972 -22.413735,22.413735 0,12.378764 10.034972,22.413735 22.413735,22.413735 12.378764,0 22.413735,-10.034971 22.413735,-22.413735 0,-12.378763 -10.034971,-22.413735 -22.413735,-22.413735 z M 23.51566,24.032107 v 4.329926 h 16.300898 v -4.329926 l 12.225673,8.405151 -12.225673,8.40515 V 36.512482 H 23.51566 v 4.329926 l -12.225673,-8.40515 z"
       style="fill:#ffffff;stroke-width:1.01880622"
       inkscape:connector-curvature="0" />
  </g>
</svg>
