<?xml version="1.0" encoding="UTF-8" standalone="no"?>
<svg
   xmlns:dc="http://purl.org/dc/elements/1.1/"
   xmlns:cc="http://creativecommons.org/ns#"
   xmlns:rdf="http://www.w3.org/1999/02/22-rdf-syntax-ns#"
   xmlns:svg="http://www.w3.org/2000/svg"
   xmlns="http://www.w3.org/2000/svg"
   xmlns:sodipodi="http://sodipodi.sourceforge.net/DTD/sodipodi-0.dtd"
   xmlns:inkscape="http://www.inkscape.org/namespaces/inkscape"
   width="22px"
   height="22px"
   viewBox="0 0 22 22"
   version="1.1"
   id="svg51"
   sodipodi:docname="teamviewer@22x22.svg"
   inkscape:version="0.92.3 (2405546, 2018-03-11)">
  <metadata
     id="metadata55">
    <rdf:RDF>
      <cc:Work
         rdf:about="">
        <dc:format>image/svg+xml</dc:format>
        <dc:type
           rdf:resource="http://purl.org/dc/dcmitype/StillImage" />
      </cc:Work>
    </rdf:RDF>
  </metadata>
  <sodipodi:namedview
     pagecolor="#ffffff"
     bordercolor="#666666"
     borderopacity="1"
     objecttolerance="10"
     gridtolerance="10"
     guidetolerance="10"
     inkscape:pageopacity="0"
     inkscape:pageshadow="2"
     inkscape:window-width="840"
     inkscape:window-height="480"
     id="namedview53"
     showgrid="false"
     inkscape:zoom="10.727273"
     inkscape:cx="11"
     inkscape:cy="11"
     inkscape:window-x="62"
     inkscape:window-y="34"
     inkscape:window-maximized="0"
     inkscape:current-layer="svg51" />
  <defs
     id="defs38">
    <filter
       id="alpha"
       filterUnits="objectBoundingBox"
       x="0%"
       y="0%"
       width="100%"
       height="100%">
      <feColorMatrix
         type="matrix"
         in="SourceGraphic"
         values="0 0 0 0 1 0 0 0 0 1 0 0 0 0 1 0 0 0 1 0"
         id="feColorMatrix2" />
    </filter>
    <mask
       id="mask0">
      <g
         filter="url(#alpha)"
         id="g7">
        <rect
           x="0"
           y="0"
           width="22"
           height="22"
           style="fill:rgb(0%,0%,0%);fill-opacity:0.2;stroke:none;"
           id="rect5" />
      </g>
    </mask>
    <clipPath
       id="clip1">
      <rect
         x="0"
         y="0"
         width="22"
         height="22"
         id="rect10" />
    </clipPath>
    <g
       id="surface5"
       clip-path="url(#clip1)">
      <path
         style=" stroke:none;fill-rule:nonzero;fill:rgb(0%,0%,0%);fill-opacity:1;"
         d="M 1.375 19.25 L 1.375 19.9375 C 1.375 20.507812 1.835938 20.96875 2.40625 20.96875 L 19.59375 20.96875 C 20.164062 20.96875 20.625 20.507812 20.625 19.9375 L 20.625 19.25 C 20.625 19.820312 20.164062 20.28125 19.59375 20.28125 L 2.40625 20.28125 C 1.835938 20.28125 1.375 19.820312 1.375 19.25 Z M 1.375 19.25 "
         id="path13" />
    </g>
    <mask
       id="mask1">
      <g
         filter="url(#alpha)"
         id="g18">
        <rect
           x="0"
           y="0"
           width="22"
           height="22"
           style="fill:rgb(0%,0%,0%);fill-opacity:0.101961;stroke:none;"
           id="rect16" />
      </g>
    </mask>
    <clipPath
       id="clip2">
      <rect
         x="0"
         y="0"
         width="22"
         height="22"
         id="rect21" />
    </clipPath>
    <g
       id="surface8"
       clip-path="url(#clip2)">
      <path
         style=" stroke:none;fill-rule:nonzero;fill:rgb(100%,100%,100%);fill-opacity:1;"
         d="M 2.40625 1.375 C 1.835938 1.375 1.375 1.835938 1.375 2.40625 L 1.375 2.75 C 1.375 2.179688 1.835938 1.71875 2.40625 1.71875 L 19.59375 1.71875 C 20.164062 1.71875 20.625 2.179688 20.625 2.75 L 20.625 2.40625 C 20.625 1.835938 20.164062 1.375 19.59375 1.375 Z M 2.40625 1.375 "
         id="path24" />
    </g>
    <mask
       id="mask2">
      <g
         filter="url(#alpha)"
         id="g29">
        <rect
           x="0"
           y="0"
           width="22"
           height="22"
           style="fill:rgb(0%,0%,0%);fill-opacity:0.2;stroke:none;"
           id="rect27" />
      </g>
    </mask>
    <clipPath
       id="clip3">
      <rect
         x="0"
         y="0"
         width="22"
         height="22"
         id="rect32" />
    </clipPath>
    <g
       id="surface11"
       clip-path="url(#clip3)">
      <path
         style=" stroke:none;fill-rule:nonzero;fill:rgb(0%,0%,0%);fill-opacity:1;"
         d="M 11 3.78125 C 6.824219 3.78125 3.4375 7.167969 3.4375 11.34375 C 3.4375 15.519531 6.824219 18.90625 11 18.90625 C 15.175781 18.90625 18.5625 15.519531 18.5625 11.34375 C 18.5625 7.167969 15.175781 3.78125 11 3.78125 Z M 8.25 8.507812 L 8.25 9.96875 L 13.75 9.96875 L 13.75 8.507812 L 17.875 11.34375 L 13.75 14.179688 L 13.75 12.71875 L 8.25 12.71875 L 8.25 14.179688 L 4.125 11.34375 Z M 8.25 8.507812 "
         id="path35" />
    </g>
  </defs>
  <g
     id="g80"
     transform="matrix(0.34375,0,0,0.34375,0,-0.171875)">
    <path
       id="path57"
       d="m 4,56 v 2 c 0,1.662 1.338,3 3,3 h 50 c 1.662,0 3,-1.338 3,-3 v -2 c 0,1.662 -1.338,3 -3,3 H 7 C 5.338,59 4,57.662 4,56 Z"
       style="opacity:0.2"
       inkscape:connector-curvature="0" />
    <rect
       id="rect59"
       transform="matrix(0,-1,-1,0,0,0)"
       ry="3"
       rx="3"
       y="-60"
       x="-60"
       height="56"
       width="56"
       style="fill:#4e91d9" />
    <path
       id="path61"
       d="M 7,4 C 5.338,4 4,5.338 4,7 V 8 C 4,6.338 5.338,5 7,5 h 50 c 1.662,0 3,1.338 3,3 V 7 C 60,5.338 58.662,4 57,4 Z"
       style="opacity:0.1;fill:#ffffff"
       inkscape:connector-curvature="0" />
    <path
       id="path63"
       style="opacity:0.2"
       d="M 32,11 C 19.849736,11 10,20.849736 10,33 10,45.150264 19.849736,55 32,55 44.150264,55 54,45.150264 54,33 54,20.849736 44.150264,11 32,11 Z M 24,24.75 V 29 H 40 V 24.75 L 52,33 40,41.25 V 37 H 24 v 4.25 L 12,33 Z"
       inkscape:connector-curvature="0" />
    <path
       id="path65"
       d="M 32,10 C 19.849736,10 10,19.849736 10,32 10,44.150264 19.849736,54 32,54 44.150264,54 54,44.150264 54,32 54,19.849736 44.150264,10 32,10 Z M 24,23.75 V 28 H 40 V 23.75 L 52,32 40,40.25 V 36 H 24 v 4.25 L 12,32 Z"
       style="fill:#ffffff"
       inkscape:connector-curvature="0" />
  </g>
</svg>
