<?xml version="1.0" encoding="UTF-8" standalone="no"?>
<svg
   xmlns:dc="http://purl.org/dc/elements/1.1/"
   xmlns:cc="http://creativecommons.org/ns#"
   xmlns:rdf="http://www.w3.org/1999/02/22-rdf-syntax-ns#"
   xmlns:svg="http://www.w3.org/2000/svg"
   xmlns="http://www.w3.org/2000/svg"
   xmlns:sodipodi="http://sodipodi.sourceforge.net/DTD/sodipodi-0.dtd"
   xmlns:inkscape="http://www.inkscape.org/namespaces/inkscape"
   width="32px"
   height="32px"
   viewBox="0 0 32 32"
   version="1.1"
   id="svg51"
   sodipodi:docname="teamviewer@32x32.svg"
   inkscape:version="0.92.3 (2405546, 2018-03-11)">
  <metadata
     id="metadata55">
    <rdf:RDF>
      <cc:Work
         rdf:about="">
        <dc:format>image/svg+xml</dc:format>
        <dc:type
           rdf:resource="http://purl.org/dc/dcmitype/StillImage" />
      </cc:Work>
    </rdf:RDF>
  </metadata>
  <sodipodi:namedview
     pagecolor="#ffffff"
     bordercolor="#666666"
     borderopacity="1"
     objecttolerance="10"
     gridtolerance="10"
     guidetolerance="10"
     inkscape:pageopacity="0"
     inkscape:pageshadow="2"
     inkscape:window-width="1858"
     inkscape:window-height="1046"
     id="namedview53"
     showgrid="false"
     inkscape:zoom="7.375"
     inkscape:cx="16"
     inkscape:cy="16"
     inkscape:window-x="62"
     inkscape:window-y="34"
     inkscape:window-maximized="1"
     inkscape:current-layer="svg51" />
  <defs
     id="defs38">
    <filter
       id="alpha"
       filterUnits="objectBoundingBox"
       x="0%"
       y="0%"
       width="100%"
       height="100%">
      <feColorMatrix
         type="matrix"
         in="SourceGraphic"
         values="0 0 0 0 1 0 0 0 0 1 0 0 0 0 1 0 0 0 1 0"
         id="feColorMatrix2" />
    </filter>
    <mask
       id="mask0">
      <g
         filter="url(#alpha)"
         id="g7">
        <rect
           x="0"
           y="0"
           width="32"
           height="32"
           style="fill:rgb(0%,0%,0%);fill-opacity:0.2;stroke:none;"
           id="rect5" />
      </g>
    </mask>
    <clipPath
       id="clip1">
      <rect
         x="0"
         y="0"
         width="32"
         height="32"
         id="rect10" />
    </clipPath>
    <g
       id="surface5"
       clip-path="url(#clip1)">
      <path
         style=" stroke:none;fill-rule:nonzero;fill:rgb(0%,0%,0%);fill-opacity:1;"
         d="M 2 28 L 2 29 C 2 29.832031 2.667969 30.5 3.5 30.5 L 28.5 30.5 C 29.332031 30.5 30 29.832031 30 29 L 30 28 C 30 28.832031 29.332031 29.5 28.5 29.5 L 3.5 29.5 C 2.667969 29.5 2 28.832031 2 28 Z M 2 28 "
         id="path13" />
    </g>
    <mask
       id="mask1">
      <g
         filter="url(#alpha)"
         id="g18">
        <rect
           x="0"
           y="0"
           width="32"
           height="32"
           style="fill:rgb(0%,0%,0%);fill-opacity:0.101961;stroke:none;"
           id="rect16" />
      </g>
    </mask>
    <clipPath
       id="clip2">
      <rect
         x="0"
         y="0"
         width="32"
         height="32"
         id="rect21" />
    </clipPath>
    <g
       id="surface8"
       clip-path="url(#clip2)">
      <path
         style=" stroke:none;fill-rule:nonzero;fill:rgb(100%,100%,100%);fill-opacity:1;"
         d="M 3.5 2 C 2.667969 2 2 2.667969 2 3.5 L 2 4 C 2 3.167969 2.667969 2.5 3.5 2.5 L 28.5 2.5 C 29.332031 2.5 30 3.167969 30 4 L 30 3.5 C 30 2.667969 29.332031 2 28.5 2 Z M 3.5 2 "
         id="path24" />
    </g>
    <mask
       id="mask2">
      <g
         filter="url(#alpha)"
         id="g29">
        <rect
           x="0"
           y="0"
           width="32"
           height="32"
           style="fill:rgb(0%,0%,0%);fill-opacity:0.2;stroke:none;"
           id="rect27" />
      </g>
    </mask>
    <clipPath
       id="clip3">
      <rect
         x="0"
         y="0"
         width="32"
         height="32"
         id="rect32" />
    </clipPath>
    <g
       id="surface11"
       clip-path="url(#clip3)">
      <path
         style=" stroke:none;fill-rule:nonzero;fill:rgb(0%,0%,0%);fill-opacity:1;"
         d="M 16 5.5 C 9.925781 5.5 5 10.425781 5 16.5 C 5 22.574219 9.925781 27.5 16 27.5 C 22.074219 27.5 27 22.574219 27 16.5 C 27 10.425781 22.074219 5.5 16 5.5 Z M 12 12.375 L 12 14.5 L 20 14.5 L 20 12.375 L 26 16.5 L 20 20.625 L 20 18.5 L 12 18.5 L 12 20.625 L 6 16.5 Z M 12 12.375 "
         id="path35" />
    </g>
  </defs>
  <g
     id="g80"
     transform="matrix(0.5,0,0,0.5,0,-0.25)">
    <path
       id="path57"
       d="m 4,56 v 2 c 0,1.662 1.338,3 3,3 h 50 c 1.662,0 3,-1.338 3,-3 v -2 c 0,1.662 -1.338,3 -3,3 H 7 C 5.338,59 4,57.662 4,56 Z"
       style="opacity:0.2"
       inkscape:connector-curvature="0" />
    <rect
       id="rect59"
       transform="matrix(0,-1,-1,0,0,0)"
       ry="3"
       rx="3"
       y="-60"
       x="-60"
       height="56"
       width="56"
       style="fill:#4e91d9" />
    <path
       id="path61"
       d="M 7,4 C 5.338,4 4,5.338 4,7 V 8 C 4,6.338 5.338,5 7,5 h 50 c 1.662,0 3,1.338 3,3 V 7 C 60,5.338 58.662,4 57,4 Z"
       style="opacity:0.1;fill:#ffffff"
       inkscape:connector-curvature="0" />
    <path
       id="path63"
       style="opacity:0.2"
       d="M 32,11 C 19.849736,11 10,20.849736 10,33 10,45.150264 19.849736,55 32,55 44.150264,55 54,45.150264 54,33 54,20.849736 44.150264,11 32,11 Z M 24,24.75 V 29 H 40 V 24.75 L 52,33 40,41.25 V 37 H 24 v 4.25 L 12,33 Z"
       inkscape:connector-curvature="0" />
    <path
       id="path65"
       d="M 32,10 C 19.849736,10 10,19.849736 10,32 10,44.150264 19.849736,54 32,54 44.150264,54 54,44.150264 54,32 54,19.849736 44.150264,10 32,10 Z M 24,23.75 V 28 H 40 V 23.75 L 52,32 40,40.25 V 36 H 24 v 4.25 L 12,32 Z"
       style="fill:#ffffff"
       inkscape:connector-curvature="0" />
  </g>
</svg>
