<?xml version="1.0" encoding="UTF-8" standalone="no"?>
<svg
   xmlns:dc="http://purl.org/dc/elements/1.1/"
   xmlns:cc="http://creativecommons.org/ns#"
   xmlns:rdf="http://www.w3.org/1999/02/22-rdf-syntax-ns#"
   xmlns:svg="http://www.w3.org/2000/svg"
   xmlns="http://www.w3.org/2000/svg"
   xmlns:sodipodi="http://sodipodi.sourceforge.net/DTD/sodipodi-0.dtd"
   xmlns:inkscape="http://www.inkscape.org/namespaces/inkscape"
   width="24"
   height="24"
   version="1"
   id="svg13"
   sodipodi:docname="todoist@24x24.svg"
   inkscape:version="0.92.4 5da689c313, 2019-01-14">
  <metadata
     id="metadata19">
    <rdf:RDF>
      <cc:Work
         rdf:about="">
        <dc:format>image/svg+xml</dc:format>
        <dc:type
           rdf:resource="http://purl.org/dc/dcmitype/StillImage" />
      </cc:Work>
    </rdf:RDF>
  </metadata>
  <defs
     id="defs17" />
  <sodipodi:namedview
     pagecolor="#ffffff"
     bordercolor="#666666"
     borderopacity="1"
     objecttolerance="10"
     gridtolerance="10"
     guidetolerance="10"
     inkscape:pageopacity="0"
     inkscape:pageshadow="2"
     inkscape:window-width="1876"
     inkscape:window-height="1027"
     id="namedview15"
     showgrid="true"
     inkscape:zoom="39.333332"
     inkscape:cx="7.937225"
     inkscape:cy="10.487056"
     inkscape:window-x="44"
     inkscape:window-y="25"
     inkscape:window-maximized="1"
     inkscape:current-layer="svg13">
    <inkscape:grid
       type="xygrid"
       id="grid97" />
  </sodipodi:namedview>
  <rect
     style="fill:#dd4638;fill-opacity:1"
     width="20"
     height="20"
     x="-22"
     y="-21.999998"
     rx="1"
     ry="1"
     transform="matrix(0,-1,-1,0,0,0)"
     id="rect2" />
  <path
     style="opacity:0.2;fill:#ffffff"
     inkscape:connector-curvature="0"
     d="M 3,2 C 2.446,2 2,2.446 2,3 v 0.5 c 0,-0.554 0.446,-1 1,-1 h 18.000001 c 0.554,0 1,0.446 1,1 V 3 c 0,-0.554 -0.446,-1 -1,-1 z"
     id="path4" />
  <path
     style="opacity:0.2"
     inkscape:connector-curvature="0"
     d="m 3,22.5 c -0.554,0 -1,-0.446 -1,-1 V 21 c 0,0.554 0.446,1 1,1 h 18.000001 c 0.554,0 1,-0.446 1,-1 v 0.5 c 0,0.554 -0.446,1 -1,1 z"
     id="path6-0" />
  <a
     style="fill:#000000;fill-opacity:0.2"
     transform="matrix(0.40000013,0,0,0.42857156,50.488103,-4.0159302)"
     id="a866" />
  <a
     style="fill:#000000;fill-opacity:0.2"
     transform="matrix(0.40000013,0,0,0.42857156,20.780786,-3.636131)"
     id="a104">
    <path
       sodipodi:nodetypes="ccccccccccccccccccccc"
       inkscape:connector-curvature="0"
       id="path102"
       d="m -21.951958,21.317628 -14.999994,9.333328 -9.999999,-4.666667 v 4.666667 l 9.999999,4.666667 14.999994,-9.33333 z m 6e-6,9.333328 -15,9.333333 -9.999999,-4.666666 v 4.666666 l 9.999999,4.666667 15,-9.333333 z m 0,9.333333 -15,9.333334 -9.999999,-4.666667 v 4.666667 l 9.999999,4.666666 15,-9.333333 z"
       style="opacity:1;vector-effect:none;fill:#000000;fill-opacity:0.2;stroke:none;stroke-width:0.74535596" />
  </a>
  <a
     id="a96-8"
     transform="matrix(0.40000013,0,0,0.42857156,20.780787,-4.1361291)"
     style="fill:#ffffff">
    <path
       style="opacity:1;vector-effect:none;fill:#ffffff;fill-opacity:1;stroke:none;stroke-width:0.74535596"
       d="m -21.951958,21.317628 -14.999994,9.333328 -9.999999,-4.666667 v 4.666667 l 9.999999,4.666667 14.999994,-9.33333 z m 6e-6,9.333328 -15,9.333333 -9.999999,-4.666666 v 4.666666 l 9.999999,4.666667 15,-9.333333 z m 0,9.333333 -15,9.333334 -9.999999,-4.666667 v 4.666667 l 9.999999,4.666666 15,-9.333333 z"
       id="rect856-5"
       inkscape:connector-curvature="0"
       sodipodi:nodetypes="ccccccccccccccccccccc" />
  </a>
</svg>
