<svg width="16" height="16" version="1" xmlns="http://www.w3.org/2000/svg">
 <rect x="1.0310483" y="2.5146289" width="13.937903" height="10.970742" ry=".048734989" style="fill:#ffffff;stroke-width:.27272502;stroke:#ffffff"/>
 <a id="a96" transform="matrix(.31004497 0 0 .31004497 20.025207 -2.3682025)">
  <path d="m-62.164888 58.289562c-1.283409-0.01038-2.452725-1.175588-2.448204-2.58959l0.01294-5.708716c-0.02275-3.44303-0.0017-5.184171-0.01253-5.882399 0 0 1.757572 0.91012 4.66332 2.404651l4.442693 2.512319 0.287834 0.134561 0.252478 0.11036 0.272383 0.04451 0.226131-0.0091 0.193538-0.06226 0.424276-0.217294 10.640741-5.949537c11.399313-6.373675 11.251947-6.278639 10.749027-6.932001-0.131022-0.170218-0.696423-0.566721-1.25644-0.881116-1.596071-0.896033-1.333795-0.942891-6.250222 1.767276-14.922731 8.226115-14.065678 7.884466-14.78992 7.828164-0.572165-0.04449-1.172581-0.343068-4.90621-2.43986-1.648568-0.959413-2.943151-1.701433-4.955145-2.863364v-1.983688c0-1.915505-0.0026-1.739303-0.0018-1.997875 0.173796 0.01173 2.415246 1.260611 4.835592 2.575642 4.479258 2.517687 4.925042 2.706785 5.735235 2.432837 0.215675-0.07293 5.157484-2.791323 10.981812-6.040883 7.614232-4.248205 10.620782-5.986432 10.700394-6.186402 0.19943-0.500893-0.06683-0.830021-1.17855-1.457052-1.848452-1.042523-0.887872-1.417163-11.340847 4.42307-6.135747 3.428128-9.168435 5.056403-9.518886 5.110759-0.681024 0.105628-1.083148-0.404298-6.088158-3.258485l-4.143077-2.336506-0.01731-4.377861c2.109699 1.241659 7.816881 5.122044 10.266576 5.771898 0.715133-0.13013 21.672846-11.828249 21.964599-12.260139 0.319261-0.472612 0.0091-0.86673-1.229124-1.559796-1.752797-0.981407-0.882739-1.327958-11.341632 4.517451-8.794936 4.915436-8.998655 5.021194-9.675361 5.02305-0.669409 0.0018-0.8345-0.0788-5.224786-2.551792-2.493445-1.404528-4.597995-2.692327-4.768585-2.735181-0.0027-0.429579 5.71e-4 -2.53003-0.01415-5.654712l-0.0081-5.113919v-0.613281c-0.05015-0.61734 0.414068-2.6869249 2.894912-2.6860195 0.800804 2.923e-4 0.560786-0.011052 23.157734-0.00508l20.890353-5e-7 2.268549 0.00648c0.740664 0.00212 2.541273 0.5798257 2.529086 2.778329l-4e-3 0.729977-0.01153 21.556384 0.07639 21.969677-1e-3 0.242297c-0.04227 1.151193-1.077934 2.398636-2.480673 2.406807l-0.874266 0.0051-22.08367 0.0024c-12.230481 0.0096-20.815709-0.02295-22.639293-0.0044z" style="fill:#dd4638"/>
 </a>
</svg>
