<svg width="32" height="32" version="1" xmlns="http://www.w3.org/2000/svg">
 <g transform="matrix(.5 0 0 .5 .00011072901 .00201926)">
  <rect x="7.670311" y="11.650128" width="35.571068" height="22.148022" style="fill:#ffffff;stroke:#ffffff"/>
  <g transform="translate(-2.4106028e-7 -.46299214)">
   <path d="m4 52.964045v1c0 1.662 1.338 3 3 3h50c1.662 0 3-1.338 3-3v-1c0 1.662-1.338 3-3 3h-50c-1.662 0-3-1.338-3-3z" style="opacity:.2"/>
   <path d="m6.1688815 55.923718c-1.021763-0.292516-1.832497-1.149786-2.111781-2.232997-0.08935-0.346541-0.09886-2.455943-0.09819-21.764762 6.17e-4 -17.876393 0.01473-21.433563 0.08607-21.701514 0.271994-1.0215002 1.173857-1.9398176 2.16148-2.2009198 0.215572-0.056991 6.2603505-0.070206 25.949092-0.056728l25.354496 0.01757 0.639397 0.2363849c0.532219 0.1967617 1.301871 0.8875785 1.525898 1.3806212 0.329967 0.7261967 0.365335-1.0368993 0.365335 22.378119 0 19.292323-0.0095 21.386208-0.09881 21.686809-0.184923 0.622701-0.416051 1.02264-0.835347 1.445463-0.429817 0.433432-0.807671 0.661774-1.372315 0.829304-0.309635 0.09187-2.555825 0.100255-25.761735 0.09619-23.999566-0.0042-25.443852-0.01056-25.803592-0.113544zm31.13902-27.986v-1.311791l-13.271196 0.0318-0.01701 1.215987c-0.0094 0.668793-0.0032 1.251945 0.01365 1.295894 0.02464 0.06421 1.331308 0.07991 6.652609 0.07991h6.621948zm-19.657153-3.010824c3.545809-2.036391 6.222833-3.611018 6.214042-3.655102-0.01475-0.07396-12.993867-7.573003-13.107132-7.573003-0.03003 0-0.0546 0.657157-0.0546 1.460349v1.460349l3.934519 2.294101c2.163986 1.261755 3.934119 2.32595 3.93363 2.364878-5e-4 0.03893-1.763998 1.098292-3.918907 2.354145l-3.918016 2.283368-0.01685 1.399928c-0.0093 0.769959-0.0022 1.438008 0.01563 1.484552 0.02473 0.06444 0.110689 0.03924 0.360336-0.105644 0.180324-0.104648 3.131131-1.800212 6.557348-3.767921z" style="fill:#33485d"/>
  </g>
  <path d="m6.9936769 7.4908701c-1.662 0-3 1.338-3 2.9999999v1c0-1.6619997 1.338-2.9999999 3-2.9999999h50c1.662 0 3 1.3380002 3 2.9999999v-1c0-1.6619999-1.338-2.9999999-3-2.9999999z" style="fill:#ffffff;opacity:.1"/>
 </g>
</svg>
