<svg width="16" height="16" version="1" xmlns="http://www.w3.org/2000/svg">
 <rect x="1.6778805" y="2.6009257" width="8.7010088" height="5.1534901" style="fill:#58ff00;stroke:#58ff00"/>
 <path d="m0.59827938 14.879131c-0.29277876-0.083819-0.52508872-0.329462-0.60511554-0.639849-0.0256026-0.099292-0.02832763-0.703732-0.02813564-6.2365344 1.768e-4 -5.1223513 0.00422135-6.1416327 0.02466274-6.2184122 0.07793849-0.2927034 0.33636019-0.5558407 0.61935648-0.6306576 0.0617706-0.0163306 1.7938582-0.0201164 7.4355251-0.0162551l7.3549965 0.00504 0.122506 0.058021c0.146943 0.069595 0.341737 0.2550052 0.410521 0.3907504 0.110218 0.2174924 0.102258-0.282546 0.102258 6.4268584 0 5.5280765-0.0028 6.1280645-0.02831 6.2141975-0.05299 0.178431-0.119218 0.29303-0.239364 0.414189-0.123161 0.124196-0.231433 0.189626-0.393227 0.23763-0.08873 0.02633-0.732353 0.02873-7.3818382 0.02758-6.8769025-0.0012-7.2907523-3e-3 -7.3938328-0.03254zm8.9226613-8.0191851v-0.3758843l-1.9013828 0.00457-1.9013826 0.00456-0.00488 0.3484323c-0.00268 0.1916378-9.169e-4 0.3587358 0.00391 0.3713291 0.00705 0.018398 0.3814766 0.022897 1.906257 0.022897h1.8974786zm-5.6326154-0.8627298c1.0160261-0.5835132 1.783108-1.0347111 1.7805889-1.0473431-0.0042265-0.0211927-3.7232986-2.1699894-3.7557541-2.1699894-0.00862 0-0.015645 0.1883036-0.015645 0.4184525v0.4184524l1.1274079 0.6573582c0.6200746 0.3615467 1.1272933 0.6664841 1.1271533 0.6776387-1.433e-4 0.0111522-0.5054609 0.3147076-1.1229346 0.6745632l-1.1226791 0.6542826-0.00483 0.4011392c-0.00265 0.2206263-6.304e-4 0.4120508 0.00448 0.4253877 0.00707 0.018464 0.031717 0.011245 0.1032513-0.030271 0.051671-0.029986 0.897203-0.5158378 1.8789614-1.079671z" style="fill:#33485d"/>
</svg>
